<svg id="geapa-loader-brain" xmlns="http://www.w3.org/2000/svg" viewBox="0 0 399.13 512"><g id="loader-base-gray"><path d="M117.65,242c-15.4,1.77-31.88-14.65-34-28.28a56.28,56.28,0,0,1,.5-20.52c10.61.31,20.14-2.84,29-8.46a49.12,49.12,0,0,0-4.29-6.82c-1.26.57-2.46,1.2-3.66,1.83-8.78,4.55-17.93,6.63-27.65,3.47-6.63-2.14-11.75-6.37-16-12.05a56,56,0,0,0-6.88,4.54,44,44,0,0,0,21.15,15.85c-3.6,19.63-.32,36.93,16.54,50.32-17.3.44-33.53-1-48.17-10-13.07-8-20.77-19.95-22.92-35C17.84,172.61,24.78,151.2,41.2,133c3.28-3.6,7.38-6.19,11.3-9a44.28,44.28,0,0,1,18.43-7.58c10.67-2.08,20.65.13,30,5.62a71.52,71.52,0,0,1,17,14.71c-9.28,7.52-14.65,17.24-17.55,28.67,2.71.69,5.24,1.39,8,2.08,3-10.48,7.7-19.7,17-25.76s19.51-7.32,30.37-5.93c.94-2.47,1.07-5.12,1.89-8a55.22,55.22,0,0,0-31.57,4c-2.78-2.46-5.36-4.55-7.83-6.88-9.15-8.65-19.38-15.09-32.07-17a53.39,53.39,0,0,0-28.72,3.73c-1.14.44-2.28.95-3.67,1.51a29.84,29.84,0,0,1,2.47-9.59c11.23-28.35,41-44.45,70.9-36.43,14.26,3.85,23,14,28.91,27A101.18,101.18,0,0,1,161,108.84c2.52.13,4.79-.82,7.07-1.39a4.74,4.74,0,0,0,.82-.25c-6.06-26.52-20-45.71-48.74-50.25,11.36-12.25,27-17.94,39.58-11.18a45,45,0,0,1,27.4-16,39.34,39.34,0,0,1,4.42-.56,29.66,29.66,0,0,1,6.32,0,38.91,38.91,0,0,1,5,.56A48.72,48.72,0,0,1,224,38.32a31,31,0,0,1,5.88,5.62c-6.38,6.31-10.86,13.57-12.44,22.41a59.2,59.2,0,0,0,1.26,25.57,26.52,26.52,0,0,1-3.79,1.52c-18,6.31-28.35,20.2-29.17,39.27A70.74,70.74,0,0,0,189,157.27a2.92,2.92,0,0,1-.31,3.15c-9.09,12.12-10.92,26-10.1,40.6.88,15.53,7.64,28.16,18.18,39.08l1.7,1.89c-.25.13-.44.32-.69.44" transform="translate(-20.44 -29)" fill="#bfc5c1"/><path d="M98,314.91C87.85,323.12,84,334,84.57,346.67a44,44,0,0,0,1.26,9.47c10.48-.57,20,2.71,29.11,8.4-1.52,2.39-2.84,4.6-4.36,6.94-7.83-4.55-16-7.89-25.13-6.88S69,370.47,63.17,378.05c-2.34-1.46-4.55-2.91-6.82-4.36,4.1-6.57,10.92-11.81,20.9-16,.19-2.33-.51-4.73-.82-7.07a51.51,51.51,0,0,1,2-21.78,13.2,13.2,0,0,0,.25-1.51c-1.2-.89-.32-1.9-.25-2.85A22.34,22.34,0,0,1,83,312.26a1.61,1.61,0,0,0,.38-1.64c-1.7-.89-3.72-.44-5.68-.38a101.15,101.15,0,0,0-19,2c-7.26,1.58-13.44,5.18-19.06,9.91a3.36,3.36,0,0,1-2.46,1.26,9.74,9.74,0,0,1-2,2.72,47.76,47.76,0,0,0-9.79,16.41,63.07,63.07,0,0,0-2.46,32.64c3.85,22,14,40.1,33.59,52A43.77,43.77,0,0,0,82,433.73c15.79-.88,27.34-9.53,37.44-21-9.4-7.52-14.64-17.24-17.49-28.54a47,47,0,0,1,8-2c6.88,24.18,23.17,34,47.54,31.69a41.66,41.66,0,0,1,1.45,8c-10.42,1.45-20.58.82-30.05-3.66-1.58-.76-2.08-1.08-2.08-1.08s-5.31,5.87-7.33,7.77c-18.43,17.3-39.14,22.41-62.82,11.87-.37-.19-.75-.38-1.13.12a3.73,3.73,0,0,0,.06.82c2.34,11.75,8.21,21.53,16.79,29.74,15.66,14.9,34.22,20,55.25,15.15,14.52-3.34,23.67-13.32,29.8-26.39a95.82,95.82,0,0,0,5.36-15.84c2.72.63,5.43.94,8,2.08-2.27,9.47-5.55,18.43-10.86,26.45a50.32,50.32,0,0,1-27.15,21,57.94,57.94,0,0,1-8.39,2.21c-.57.06-2.15.12-2.15.12a2.37,2.37,0,0,0,.88,2.15,59.74,59.74,0,0,0,13.64,9.09c7.89,3.66,15.85,4.55,23.93.57a1.76,1.76,0,0,1,.82-.06c.25.19.38.31.57.44,12.81,14.39,28.72,18.31,47.1,14.27a49.3,49.3,0,0,0,16.29-7.14l1.76-1.39c2-1.77,3.29-2.46,4-4.86A41.54,41.54,0,0,1,219,483c-1.64-8.64-.69-17.29,1.2-25.82-1.13-.38-1.89-.69-2.71-.94s-1.58-.51-2.4-.82c-15.15-5.88-24.43-16.61-27.21-32.71-1.77-10.35-.44-20.52,2.59-30.49a3.76,3.76,0,0,0-.57-3.73,40.35,40.35,0,0,1-6.06-11c-5.62-16-5.24-31.88.44-47.8-1.26-6.12.44-11.23,4.86-15.59a5,5,0,0,0,.95-1.26c1.51-2.46.94-4-1.9-4.42a46.18,46.18,0,0,0-7.19-.7c-15.54-.06-31.13-.25-46.66.07-10.54.25-21.09,1.07-31.38,3.66a4.12,4.12,0,0,0-2.08,1.07c-.51.38-.82.82-1.33,1.2" transform="translate(-20.44 -29)" fill="#bfc5c1"/><path d="M218.54,242.5c-5.68.38-9.09-1.39-12.75-5.05-6.57-6.63-12.82-13.58-15.85-22.48-4.61-13.64-4.8-27.53.63-41s16.42-20.58,30-24.11c2.21-.57,4.55-.95,6.95-1.39.44-2.59-.13-5.12,0-8.27-11.37,1.2-21.47,4.8-30.24,11.68-1.2,1-1.14.44-1.33-.13-1.71-8-2.59-15.91-1.26-24.12,2.21-13.82,13.7-25.38,27.46-27.27,9,14.52,22.79,19.51,39.4,19.32-.26-2.91-.45-5.43-.7-8.21a54.46,54.46,0,0,1-10.67-1.07c-14.39-3.22-22.1-11.75-24.43-26.83-1.2-7.64-1.14-15.09,2-22.29C233.63,47.6,247,40.47,262.17,42.68c1.32.19,2.71.38,4,.69,9.34,2,16.92,6.32,20.07,16.23,16.23-3.79,30.94-.57,44.2,9.21,9,6.63,15.4,16.29,16.92,25.07-17.43-4.61-34-4.86-48,8.71-8,7.89-15,23.3-15,33.08,2.53.32,5.12.57,7.9.89a84.63,84.63,0,0,1,3.21-12.25,48.43,48.43,0,0,1,4.42-9c7.39-11.87,18-16.79,31.82-15.09a160.08,160.08,0,0,1,18.94,3.35c16.67,4,27.22,15.15,33.34,30.68a35.87,35.87,0,0,1,1.64,21.59c-13.83-5.24-27.65-6.94-41.67-1.57-13.76,5.24-23.36,15.34-31,27.59-9.66-4.74-19.76-6.7-30.49-7.2.44-11-3.47-20.46-9.47-29.49l-6.82,4.61c4.86,7.77,8.52,15.79,7.83,25s-5.3,16.67-12.56,22.67c1.57,2.27,3.09,4.48,4.73,6.82a42.27,42.27,0,0,0,13.83-18.63c.75-2.08,1.76-2.59,3.85-2.46a68.59,68.59,0,0,1,19.44,3.79c17.05,6.12,26.33,18.81,27,36.87a101.67,101.67,0,0,1-1.13,16.35c-.32,2.34-1.27,2.84-3.48,2.78" transform="translate(-20.44 -29)" fill="#bfc5c1"/><path d="M336.79,242.81c.19-4.86.19-6.63.32-10,.69-8.08.69-16.16-1.39-24.11A39.47,39.47,0,0,0,322.65,188c-3.54-3-3.6-3.41-1.07-7.13,7.95-11.75,18.12-20.46,32.64-22.67,11.55-1.77,22.41,1,32.51,6.38,12.37,6.63,21.34,16.54,25.51,30.24a38,38,0,0,1,.06,22.67c-3.66,11.93-12.37,18.62-23.67,22.41a54.06,54.06,0,0,1-16.74,2.84c-11.42.31-24.05.06-35.1.06" transform="translate(-20.44 -29)" fill="#bfc5c1"/><path d="M383.51,308.79c6.19.82,12.19,1.83,17.36,5.68.89.63,1.71,1.64,3.1,1.14l.12.31c.19.38.13.32.32.51.38.5.69,1.07,1.07,1.51,12.12,12.82,12.76,27.53,5.87,42.62-7.13,15.66-20,24.94-36.55,29.23-12.63,3.28-24.56,2-35.61-5.24a57.56,57.56,0,0,1-17-17.87,26.88,26.88,0,0,1-1.71-2.52c.57-.38,2.53-1.9,3.09-2.34,12.76-10.23,16.29-24.12,15.66-39.58.06-.26.13-.45.19-.7,1.14-2.46,2.59-4.73,2.59-7.64,0-3.79.88-4.61,4.73-5a154.76,154.76,0,0,1,17.87-.63" transform="translate(-20.44 -29)" fill="#bfc5c1"/><path d="M304,245.78a10.73,10.73,0,0,0-1.38-.13c-16.1-.44-32.2-.5-48.11,2.53-8.4,1.58-16.61,3.85-23.49,9.28-3.85,3.6-6.94,7.76-10.29,11.81a27.88,27.88,0,0,0-1.77,3c-2.33,5.87-6.94,9.22-12.69,11.43a132.82,132.82,0,0,1-23,6.19c-22.16,4.35-44.51,6.94-66.92,9.66-2.21.25-4,.38-6.19.63a6,6,0,0,0-1.14.12,15.4,15.4,0,0,0,1.58.19c.38,0,1.26.07,1.26.07,1.46,0,3.73,0,5-.07,4.68.07,9.22-.25,13.83-.19l30-.88c14.46-.57,30.68-1,41.61-2.52,5.36-.76,19.44-4.3,24.11-8.65,4.49-4.23,8.65-8.65,11.3-14a30,30,0,0,1,9.79-11.55,50.67,50.67,0,0,1,9-5.05c14.64-6.31,30.24-9,45.9-11.37.88-.25,1.83-.44,1.57-.5" transform="translate(-20.44 -29)" fill="#bfc5c1"/><path d="M374.23,472.94c-2.9-2.4-5.81-4.93-7.58-8.34-1.7-3.22-.82-4.86,2.78-5.55,3.1-.63,6.06-.07,9.09.25,0-.25-.06-.5-.06-.76a96.25,96.25,0,0,1-11.43-4.1c-2.27-.95-2.78-2.4-2.21-4.67.7-2.84,2.53-5,4.11-7.26a2.72,2.72,0,0,0,.5-1.08c.07-.44-1,.32-1.26.51-1.33.76-2.65,1.58-4,2.46a29.68,29.68,0,0,1-11.68,5.24L337,451.28c-4.17.89,7.7.89,11.55,1.08,4.3.12,5.12,1.57,3.54,5.55-1.2,3-2.46,6-2.4,9.34,1.39-2.33,2.34-4.92,4.1-7s2.47-2,3.92.06c4.73,6.5,9.78,10.29,16.48,14.58.25.19,1.89.95,2.27.45a10.19,10.19,0,0,0-2.21-2.4" transform="translate(-20.44 -29)" fill="#bfc5c1"/><path d="M79.08,326.47c.06.37.06.69-.38.82a.65.65,0,0,1,.38-.82" transform="translate(-20.44 -29)" fill="#bfc5c1"/><path d="M59.19,435c3.85.95,7.58,2.28,11.74,2.47a38.08,38.08,0,0,0-7.38-2.91c-8.21-2.78-15.47-6.94-20.59-14.14a18.5,18.5,0,0,0-1.83-2.08c-.25-.32-1.07-1.2-.94-.7s.19.7.31,1.26c.57,2.21,1.64,4.23,1.9,6.57.44,4-.57,5.37-4.42,5.75s-7.89.56-11.81.88a3.53,3.53,0,0,0-1.26.19c-.19.06.63.06,1.26.19,3.22.5,6.44.94,9.41,2.46,3.15,1.64,3.47,3.35,1.07,5.93-2.71,2.91-6.31,4.55-9.85,6.07A9.85,9.85,0,0,0,23,449.07s-.5.7-.31.89.57-.13.95-.26c1.89-.63,3.72-1.32,5.61-1.89a58.94,58.94,0,0,0,16.1-7.7c3.16-2.34,3.35-2.28,5.43.94s3.6,6.63,6.38,9.29a3.86,3.86,0,0,0,.95.82c.5.31.25-.57.06-.82-1.51-3.1-3.35-6.07-4.36-9.35-.56-1.83-1.2-3.72.13-5.37,1.45-1.89,3.41-1.07,5.24-.63" transform="translate(-20.44 -29)" fill="#bfc5c1"/><path d="M226.37,512.21c-1.45,1.83-4.17,5-4.36,5.3,0,0-1.13,1.2-1.07,1.64s1.89-1,1.89-1c.38-.19,5.5-4.48,9.79-4.17-2,5.88-1.89,11.62-1.26,17.37a89.32,89.32,0,0,1,.19,9.09c0,2.52,1.7-4,1.7-6.57s-.44-5.05,0-7.57c.7-3.86,3.92-5.31,7.32-3.29a16.61,16.61,0,0,1,3.92,3.66,79.45,79.45,0,0,1,5.68,8.72c.38.63.57,1.39,1.58,1.83a23.93,23.93,0,0,0-3.16-10.67c-1.83-3.47-4.48-6.32-6.88-9.35-2.71-3.34-2.21-4.67,2.09-5.49.31-.06.63-.06.94-.13,6.06-.82,12.12-1,18.25-1.26l.12-.25-.12-.25a51.06,51.06,0,0,1-8.15-.76c-10-1.07-18.31-4.92-23.61-13.95a67.5,67.5,0,0,0-5.24-6.88c-.38,2.9,1.52,5,2.65,7.38s2.59,4.29,3.22,6.76c1.08,4.1-1,6.5-4,8.71" transform="translate(-20.44 -29)" fill="#bfc5c1"/><path d="M378.46,458.48a8.2,8.2,0,0,1,1.7.63c.32.19-1.64.06-1.64.06" transform="translate(-20.44 -29)" fill="#bfc5c1"/><path d="M329.15,330.25c1.14-3.09,2.59-6.06,2.78-9.4,0-1.52-.06-3-.06-4.49-.26-4.48-6.95-8.71-12.76-8.71-9.59,0-19.13-.06-28.72-.06-19.38,0-38.7-.19-58.09.06a64.15,64.15,0,0,0-26.45,5.94,4.14,4.14,0,0,0-2,1.45c-.38.5-.63.88-.94,1.32-.89.95-1.2,1.27-1.71,1.9-5.11,6.12-9.34,12.75-11.24,20.58a73,73,0,0,0-1.64,18.5c.44,21.34,12.38,36.43,33,41.79,2.59.7,5.24,1.14,8,1.71a34.77,34.77,0,0,1-.7,8.08A58.19,58.19,0,0,1,198,396.86c-1.7,4.92-2.08,9.79-2.33,14.71-.95,18.44,8.52,31.95,25.88,37,.82.25,2.09.69,2.09.69l1.19-1.89c5.06-8.15,12.57-13.13,21.66-15.79A45.36,45.36,0,0,1,263,429.63a49.87,49.87,0,0,1-.7,8.2A55.2,55.2,0,0,0,251.5,439c-11.81,2.72-20,9.35-23,21.53a66.19,66.19,0,0,0-1.9,12.12c-1,16.16,9.28,30.12,24.56,33.59a37.62,37.62,0,0,0,13.83.25c10.41-1.58,19.19-5.55,23-16.73A49.75,49.75,0,0,0,325.24,485c11.87-6.44,20.26-15.85,24.12-29.05l.25-.82-.82.26a66.17,66.17,0,0,1-9.85,2.21c-12.69,1.89-24.62.25-34.79-8.15-11.11-9.15-16-21.65-18.37-35.67a31.86,31.86,0,0,1,8.33-.76c.13.76.26,1.27.32,1.77,1.45,7.7,4,15,8.65,21.4,5.49,7.64,12.63,12.5,22.28,13,9.92.57,19.51-1.64,28.92-3.92,16.48-4,31.57-21.71,33.46-38.57a34,34,0,0,0-.57-13.13c-31.63,11.68-55.24,1.2-72.73-26.08-9.66,4.74-19.76,6.69-30.24,7.2.06,11-3.41,20.52-9.6,29.23a57.94,57.94,0,0,1-6.81-4.54c5-7.71,8.46-15.72,7.82-25s-5.43-16.54-12.43-22.6c1.58-2.33,3.09-4.42,4.67-6.75a44.69,44.69,0,0,1,14.9,21.27c10-.38,19.51-1.95,28.28-6.5,12.5-6.44,19.2-16.79,20.52-30.75-.82.38-1.07,1.33-2.08,1.39-.19,0-.38.07-.44-.06" transform="translate(-20.44 -29)" fill="#bfc5c1"/><path d="M419.56,408.16c-.38-1.7-2-2.15-3-2.78a46.2,46.2,0,0,1-9.09-6.63A17.67,17.67,0,0,1,402,385.87c0-3.53,1.32-6.69,2.46-10a3.6,3.6,0,0,0,.38-1.39l-.88.88c-1.2,1.14-2.47,2.28-3.67,3.41-2.77,2.84-5.61,5.62-9.28,7.33a96.05,96.05,0,0,1-16.85,5.55s-3.54,1.33-1.83,1.2l1.51-.25c4.67-.82,9.28-1.83,13.95-2.46a2.85,2.85,0,0,1,3.35,3.6,59,59,0,0,0-.95,11s.13,1.39.44,1.14c0,0,.32-.82.45-1.26.82-2.66.88-5.37,2.14-7.77,1.08-2.21,2-2.34,3.79-.88a20.88,20.88,0,0,0,5.56,3.47c5.62,2.21,8.58,6.31,9.34,12.18a2.59,2.59,0,0,0,.13.64s.57,1.89.94,1.57v-1.45c-.19-2.27-.31-4.48.95-6.44,2.08.19,3.54,2.08,5.62,2.21" transform="translate(-20.44 -29)" fill="#bfc5c1"/><path d="M132.93,503.94a41.57,41.57,0,0,1-10.29-6.38c-1.39-1.26-3.22-2.59-1.83-5a3.32,3.32,0,0,1,.38-.44l.25-.25a3.22,3.22,0,0,1,.63-.51l3.73-1.51c2.84-1,5.74-1.58,8.84-3.6a22.08,22.08,0,0,0-5.75.95c-6.19,1.26-12.31,2.9-18.62,1.51-3.86-.88-7.71-2-11.5-3,0,0-.5-.13-.63,0v.19a5.94,5.94,0,0,0,.63.44c3,1.83,6,3.73,7.77,7.07.95,1.83.76,3.1-.82,4.36-2.72,2.08-5.43,4.23-8.21,6.38,0,0-1.39.88-1.26,1s2-.38,2-.38a43.08,43.08,0,0,1,5.68-1.58c4.35-.63,5.87,1,4.73,5.3a31,31,0,0,1-4.92,9.66,8.58,8.58,0,0,0-2,4.17c-.31,1.77-.19,4.36.25,2.65.38-1.45.38-1.89.57-2.65.07-.06.07-.13.07-.25a41.69,41.69,0,0,1,2.9-3.79c4-5,7.77-10.17,10.1-16.16,1.52-3.86,1.58-3.92,5.3-2.21s7.58,4,11.94,4.67c0,0,1.32.12,1.13-.07-.38-.18-1.07-.56-1.07-.56" transform="translate(-20.44 -29)" fill="#bfc5c1"/><path d="M245.63,245.27a103.13,103.13,0,0,0-12.57.45c-4.42.5-8.77,1.26-12.37,4a3.05,3.05,0,0,1-2.91.38c-11.87-3-24.05-3.79-36.17-4.49-11.37-.56-22.67-.5-34-.5a9.77,9.77,0,0,0-1.45.06,3.58,3.58,0,0,0,1.39.51c10.79,1.64,21.52,3.34,32.13,5.74,10.29,2.34,20.58,4.86,30.24,9.28,3.73,1.71,7.51,3.35,9.72,7.14.32.5,0,.82.89-.26a50.46,50.46,0,0,1,9.6-10.54c-.19-3.28,1.7-5.3,4.29-6.69a37,37,0,0,1,11.49-4l4-.89Z" transform="translate(-20.44 -29)" fill="#bfc5c1"/><path d="M112.54,301.91A13.91,13.91,0,0,0,111,302a267.55,267.55,0,0,0-43.82,4.61c-7.32,1.45-14.52,3.47-21,7.32-3.85,2.27-7.26,5-8.84,9.47,1.08.06,1.71-.63,2.47-1.26,5.61-4.74,11.8-8.4,19.06-9.91a106.38,106.38,0,0,1,19-2c1.9-.07,3.92-.45,5.69.37a1.71,1.71,0,0,1-.38,1.65,21.89,21.89,0,0,0-4.55,12.18c-.06.95-.94,2,.26,2.84-.13-.44.06-.63.37-.82,4.55-7.57,11.94-11,19.83-13.7a1.73,1.73,0,0,0,.44-.12l.25-.07c.7-.19.13-.06,1.08-.31.75-.19,1.57-.7,2.39-.89a138.41,138.41,0,0,1,31.38-3.66c15.53-.31,31.13-.13,46.66-.06a46.17,46.17,0,0,1,7.2.69c2.84.44,3.41,2,1.89,4.42a8.48,8.48,0,0,1-.95,1.26c-4.42,4.3-6.18,9.47-4.86,15.6.19.88.32,1.77.51,2.71,1-.56,1.2-1.7,1.7-2.59,3.85-6.25,8.65-11.49,15.79-14.07l.37-.13,1.2-.44a3.44,3.44,0,0,1,2-1.45,62.16,62.16,0,0,1,26.45-5.94c19.39-.25,38.7-.06,58.09-.06,9.59,0,19.13,0,28.72.06,5.81,0,12.31,4.23,12.57,8.71,0,1.65.06,2.78.06,4.49-.19,3.34-2,6.75-2.9,9.53-.07.13.75.13.75.13,1-.13,1.39-.76,2-1.39,2.34-2.34,4.68-4.61,7.08-6.95a5.63,5.63,0,0,0,.56-.63c1.14-2.46,2.59-4.73,2.59-7.64,0-3.79.89-4.61,4.74-5a154.51,154.51,0,0,1,17.86-.63l19,.57c6.18.82,12.18,1.83,17.36,5.68.88.63,1.7,1.64,3.09,1.14-1.32-2.84-3.78-4.42-6.37-5.87a56.82,56.82,0,0,0-14.08-5.31c-17.87-4.54-36.18-6.25-54.42-8.2-19.32-2.09-38.71-3.6-57.84-7.07-7.45-1.33-14.83-3-21.71-6.19-4.11-2-7.9-4.36-9-9.6-.51.89-.82,1.39-1.14,2-6.06,12.31-15.78,19.57-29.36,22.22-13.82,2.72-27.71,3.16-41.66,3.22" transform="translate(-20.44 -29)" fill="#bfc5c1"/></g><g id="loader-part-8"><path d="M336.79,242.81c1.15-19.68,2.82-41.33-14.14-54.8-3.53-3-3.6-3.41-1.07-7.13,26.6-47,103.94-14.58,90.72,36.62C401.88,249,362.66,242.23,336.79,242.81Z" transform="translate(-20.44 -29)" fill="#187d0b"/></g><g id="loader-part-7"><path d="M218.54,242.5c-13.24.73-24-16.87-28.6-27.53-11.12-29.38,4.16-64,37.57-66.54.44-2.59-.13-5.12,0-8.27-11.37,1.2-21.47,4.8-30.24,11.68-1.2,1-1.14.44-1.33-.13-6.34-20.83,2-48.29,26.2-51.39,9,14.52,22.79,19.51,39.4,19.32-.25-2.91-.44-5.43-.7-8.21C232.78,113.34,218.33,86,227.7,61.24c8.45-23.61,49.57-26.49,58.59-1.64,24.73-7.07,56.08,9.5,61.11,34.28-31.31-11.2-60.8,9.6-62.94,41.79,2.52.32,5.11.57,7.89.89,2.79-20.07,17-40.31,39.46-36.37,30.26.65,59.95,22.9,53.91,55.62-27.37-12.45-58.62.17-72.66,26-9.66-4.74-19.77-6.7-30.5-7.2.44-11-3.47-20.46-9.47-29.49-2.33,1.58-4.48,3-6.82,4.61,10.93,14.87,10.94,36.1-4.73,47.67,1.58,2.27,3.09,4.48,4.73,6.82,11.72-7.73,12.9-22.47,17.68-21.09,23.6.53,46.67,15,46.4,40.66-.62,4.27,1.43,19.82-4.6,19.13" transform="translate(-20.44 -29)" fill="#187d0b"/></g><g id="loader-part-6"><path d="M117.65,242c-24.78,1.08-39.95-27.26-33.46-48.8,10.61.32,20.14-2.84,29.05-8.46a50.13,50.13,0,0,0-4.3-6.82c-15.25,9.83-36.46,9.45-47.35-6.75a56,56,0,0,0-6.88,4.54,44,44,0,0,0,21.15,15.85c-3.6,19.63-.32,36.93,16.54,50.32-134,7.8-54.33-189.64,25.57-105.19-9.28,7.52-14.65,17.24-17.55,28.67,2.71.69,5.24,1.39,8,2.08a40.63,40.63,0,0,1,47.42-31.69c.94-2.46,1.07-5.12,1.89-8a55.22,55.22,0,0,0-31.57,4c-19.29-20.29-45.39-32.32-72.28-18.62C64,55.48,150.59,45.2,161,108.84c2.88.08,5.25-.93,7.89-1.64-6.06-26.52-20-45.71-48.74-50.25,11.36-12.25,27-17.93,39.59-11.18,16.65-21.46,52.39-22.26,70.14-1.83-13.33,12.12-15.8,31.29-11.18,48-35,11.38-35.78,37.75-30,68.5C171,185.33,176.5,221.67,198.47,242c-.26.13-.45.32-.7.44" transform="translate(-20.44 -29)" fill="#187d0b"/></g><g id="loader-part-5"><path d="M245.63,245.28c-8.4.17-17.77-.58-24.94,4.48a3,3,0,0,1-2.9.38c-23-5.42-46.76-4.85-70.21-5-1.41-.05-2.06.11-.06.57,21.43,4.4,56.43,6.46,72.1,22.16.31.5,0,.82.88-.25a51.07,51.07,0,0,1,9.6-10.55c.57-9.09,12.93-9.63,19.76-11.61Z" transform="translate(-20.44 -29)" fill="#080707"/><path d="M112.54,301.91c-21.75,2.07-63.31.15-75.26,21.46,7-3.92,13-10,21.53-11.17,8-1.3,16.65-2.91,24.69-1.64-1.54,4.61-5.13,8.4-4.92,13.82-.07.95-1,2,.25,2.84h0c17.55-27.33,73.47-17.94,102.4-19.63,23.08.55-2.95,8.31,3.79,24.68,4.71-7.43,10-14.68,19.07-17.23,24.7-13.65,58.88-5.31,86.49-7.45,17.74.92,52.18-6.64,38.45,22.79,3.16.25,7-6.27,9.85-8.21,8.47-15.28-4.82-13.21,25.76-13.89,10.69.61,27.36-.87,36.36,6.25.89.64,1.71,1.65,3.09,1.14-20.69-28.34-152.39-11.76-163.45-42.24-11.87,28.51-46.12,26.86-72.16,27.4" transform="translate(-20.44 -29)" fill="#080707"/></g><g id="loader-part-4_" data-name="loader-part-4
"><path d="M383.51,308.79c6.19.82,12.19,1.83,17.37,5.68.88.63,1.7,1.64,3.09,1.14,44.2,51.94-50.09,111.37-83.53,48.55,21.07-14.39,15.87-29.82,21.53-50.26-1.1-8.45,17.13-4.68,22.6-5.62" transform="translate(-20.44 -29)" fill="#5d381a"/><path d="M419.56,408.16c-.38-1.7-1.95-2.14-3-2.78-11.41-5.28-18.52-17.54-12.13-29.48h0a3.43,3.43,0,0,0,.38-1.39c-8,9.37-18.69,15-30.68,17.17,0,0-3.54,1.33-1.83,1.2,17.87-1.89,20.13-9.6,17.87,11.87h0s.12,1.39.44,1.14c1.57-2.79,1.24-13.63,6.37-9.91a20.63,20.63,0,0,0,5.56,3.47c5.89,2.26,8.73,6.75,9.47,12.82,0,0,.57,1.89.95,1.57.05-2.69-.64-5.53.94-7.89C416,406.14,417.48,408,419.56,408.16Z" transform="translate(-20.44 -29)" fill="#080707"/></g><g id="loader-part-3_" data-name="loader-part-3
"><path d="M374.23,472.94c-10.93-8.51-12.19-16.53,4.3-13.64,0-.25-.07-.5-.07-.76-4.23-2.12-14.87-2.29-13.64-8.77.66-3.28,3.36-5.52,4.61-8.34-1.48.13-3.61,2.13-5.24,3-6.28,5.7-19.26,6.05-27.21,6.88-4.16.89,7.71.89,11.56,1.08,9.37,0,0,9.82,1.13,14.9,1.73-2.36,4.56-11.8,8-6.95,4.32,5.51,12.07,13.66,18.75,15A10.19,10.19,0,0,0,374.23,472.94Z" transform="translate(-20.44 -29)" fill="#080707"/><path d="M226.37,512.21c-2.46,3.29-4.29,4.62-5.43,6.94,2.72-.54,5.36-5.16,11.68-5.17-3.15,8.89-.63,17.54-1.07,26.45,0,2.52,1.7-4,1.7-6.57s-.44-5.05,0-7.57c5.33-13.06,14.64,6.61,18.5,10.92-2.85-23.46-29.89-25.52,11.24-26.9l.13-.25-.13-.25c-18.71-.05-27.06-6.34-37-21.59.3,7.8,12.23,16.74,1.83,22.85" transform="translate(-20.44 -29)" fill="#080707"/><path d="M329.15,330.25c13.5-29.33-21.19-21.68-38.76-22.66-28,1.72-57.95-5.06-84.54,6-30.63,26.27-20.94,84,23.49,87.26a34.23,34.23,0,0,1-.7,8.08A58.19,58.19,0,0,1,198,396.86c-7.43,22.33,1.41,47.28,25.64,52.4,7.59-13.94,23.86-20.57,39.33-19.63a51.2,51.2,0,0,1-.69,8.21c-41-3.63-49.57,59.16-11.12,68.37,14.2,2.31,31.55-.83,36.81-16.48,25.58,7,54.76-8.65,61.62-34.6-32.14,11.67-59.89-8.2-63.83-41.35a31.93,31.93,0,0,1,8.34-.76c2.48,16.57,12.57,35.36,31.25,36.18,31.76,2.82,69.08-20,61.81-55.62-31.64,11.68-55.25,1.2-72.74-26.08-9.66,4.74-19.76,6.7-30.24,7.2.07,11-3.41,20.52-9.59,29.23a57.26,57.26,0,0,1-6.82-4.54c11-14.73,10.77-36-4.61-47.61,1.58-2.33,3.09-4.42,4.67-6.75a44.69,44.69,0,0,1,14.9,21.27c22.79.15,47.54-12.15,48.8-37.25-.84.41-1.43,1.76-2.52,1.33" transform="translate(-20.44 -29)" fill="#5d381a"/></g><g id="loader-part-2"><path d="M98,314.91C85.2,325,82.37,340.81,85.83,356.14c10.49-.57,20,2.71,29.11,8.4-1.52,2.4-2.84,4.61-4.36,6.94-15.22-10.37-36.37-9.56-47.41,6.57-2.34-1.46-4.55-2.91-6.82-4.36,4.1-6.57,10.92-11.81,20.9-16-1.42-10.23-1.76-20.43,1.45-30.36-1.2-.89-.31-1.9-.25-2.84-.21-5.4,3.46-9.27,4.92-13.83-7.94-1.28-16.7.3-24.68,1.64-8.51,1.27-14.56,7.25-21.53,11.18-48.59,51.72,27.65,154.94,82.33,89.27-9.41-7.52-14.65-17.24-17.49-28.54a47.09,47.09,0,0,1,8-2c6.88,24.18,23.17,34,47.54,31.69a41.8,41.8,0,0,1,1.45,8c-10.95,1.6-22.55.61-32.13-4.74-17.72,22.42-44.54,31.42-71.28,19.76C67,494.34,152,504.07,162.8,440.3c2.71.63,5.43.94,8,2.08-4.88,24.37-22.42,47.65-48.55,49.81,1.94,5.3,9.92,8.47,14.52,11.24,8.25,4.11,16.31,4,24.75.51,16.46,20.53,53.71,22.34,69.77,1.32-13.41-12.11-15.41-31.37-11.12-48.11-29.31-6.68-39.18-38.82-29.73-65a3.76,3.76,0,0,0-.57-3.73c-12.23-17-12.4-39.49-5.62-58.77-4.11-10.95,12.77-19.54,3.92-21.28-17.84-1.65-35.94-.55-53.86-.63-11.35,1.09-25-.4-34.78,5.93" transform="translate(-20.44 -29)" fill="#5d381a"/><path d="M59.19,435c3.85.95,7.58,2.28,11.75,2.47-14.63-5.49-20.89-7.77-30.75-19.83,6.87,17.35-2.8,12.75-15.28,14.65-.19.06.63.06,1.26.19,22.48,3.3,8.33,10.9-3.15,16.6-1.76,2.34,5.22-1.31,6.25-1.26,24.13-7.1,13.6-17.56,27.9,2.53.55.76,1.73,1.35,1,0C55.69,445.9,48,431.87,59.19,435Z" transform="translate(-20.44 -29)"/><path d="M132.93,503.94c-3.4-2-16-7-11.49-12.06,4.08-2.67,8.75-2.67,13.2-5.62-14.9,3.07-21.77,4.23-36.49-.57v.19c14.62,9.07,8.71,11.1-1.9,19.26.25.19,2-.38,2-.38,19.52-6.87,7.26,9.22,3.53,17.55-.31,1.77-.18,4.36.26,2.65.38-1.45.38-1.89.57-2.65.06-.06.06-.13.06-.25,22.8-26.42,3.94-26.45,30.24-17.49,0,0,1.33.12,1.14-.06C133.63,504.32,132.93,503.94,132.93,503.94Z" transform="translate(-20.44 -29)"/></g><g id="loader-part-1_" data-name="loader-part-1
"><path d="M304,245.78c-24.3-.19-51.89-2.5-73,11.68-9.86,7.62-12.29,22.11-24.74,26.2-31,10.27-64,12.33-96.16,16.48,0,0-1.26.06-1.13.13a48.46,48.46,0,0,0,7.89.19c25.65-.57,61.57-.9,85.42-3.6C257.22,286.73,211.86,258,304,245.78Z" transform="translate(-20.44 -29)"/></g></svg>